<?xml version="1.0" encoding="UTF-8"?>
<svg xmlns="http://www.w3.org/2000/svg" xmlns:se="https://standardebooks.org/vocab/1.0" version="1.1" viewBox="0 0 1400 440" se:generated-from="81b63a1d5703838f5a83652ca7d732f48812762c">
	<path d="M 184.85143,112.69311 C 167.1667,112.69311 159.40039,100.34187 159.40039,89.955596 159.40039,79.662896 167.1667,67.311656 184.85143,67.311656 193.83415,67.311656 200.00977,72.083726 200.00977,72.083726 L 207.49537,57.112526 C 207.49537,57.112526 198.88693,50.001206 182.1379,50.001206 160.24252,50.001206 140.31211,67.966646 140.31211,90.142736 140.31211,112.22526 160.33609,130.00356 182.1379,130.00356 198.88693,130.00356 207.49537,122.89224 207.49537,122.89224 L 200.00977,107.92104 C 200.00977,107.92104 193.83415,112.69311 184.85143,112.69311 Z"/>
	<path d="M 215.85512,89.955596 C 215.85512,112.50597 231.94916,130.00356 254.78024,130.00356 276.95633,130.00356 293.61179,112.50597 293.61179,89.955596 293.61179,67.405226 276.20777,50.001206 254.78024,50.001206 233.53985,50.001206 215.85512,67.405226 215.85512,89.955596 Z M 234.84983,89.955596 C 234.84983,78.446486 241.21259,66.937376 254.78024,66.937376 268.44146,66.937376 274.61708,78.446486 274.61708,89.955596 274.61708,101.46471 268.81574,112.97382 254.78024,112.97382 240.37046,112.97382 234.84983,101.46471 234.84983,89.955596 Z"/>
	<path d="M 323.96488,80.692166 324.15202,80.692166 354.84298,128.60001 372.43414,128.60001 372.43414,51.404756 354.84298,51.404756 354.84298,99.312596 354.65584,99.312596 323.96488,51.404756 306.37372,51.404756 306.37372,128.60001 323.96488,128.60001 323.96488,80.692166 Z"/>
	<path d="M 433.31151,51.404756 388.67862,51.404756 388.67862,128.60001 406.26978,128.60001 406.26978,97.628336 431.25297,97.628336 431.25297,82.189286 406.26978,82.189286 406.26978,66.843806 433.31151,66.843806 433.31151,51.404756 Z"/>
	<path d="M 490.84229,51.404756 446.67725,51.404756 446.67725,128.60001 490.84229,128.60001 490.84229,113.16096 464.26841,113.16096 464.26841,97.628336 489.71945,97.628336 489.71945,82.189286 464.26841,82.189286 464.26841,66.843806 490.84229,66.843806 490.84229,51.404756 Z"/>
	<path d="M 534.40045,50.001206 C 521.95564,50.001206 509.23012,59.171066 509.23012,73.580846 509.23012,81.627866 514.65718,88.832756 523.92061,93.417686 533.09047,98.002616 541.32463,100.52901 541.32463,106.14321 541.32463,113.3481 534.02617,113.72238 530.1898,113.72238 521.58136,113.72238 511.28866,105.02037 511.28866,105.02037 L 502.49308,119.80443 C 502.49308,119.80443 513.44077,130.00356 531.49978,130.00356 546.56455,130.00356 560.60005,123.54723 560.60005,105.11394 560.60005,95.008376 551.14948,87.709916 542.54104,84.060686 533.74546,80.317886 526.447,77.230076 526.447,72.925856 526.447,68.715206 529.62838,66.001676 535.61686,66.001676 543.57031,66.001676 551.24305,71.335166 551.24305,71.335166 L 558.35437,57.299666 C 558.35437,57.299666 548.43595,50.001206 534.40045,50.001206 Z"/>
	<path d="M 600.44025,50.001206 C 587.99544,50.001206 575.26992,59.171066 575.26992,73.580846 575.26992,81.627866 580.69698,88.832756 589.96041,93.417686 599.13027,98.002616 607.36443,100.52901 607.36443,106.14321 607.36443,113.3481 600.06597,113.72238 596.2296,113.72238 587.62116,113.72238 577.32846,105.02037 577.32846,105.02037 L 568.53288,119.80443 C 568.53288,119.80443 579.48057,130.00356 597.53958,130.00356 612.60435,130.00356 626.63985,123.54723 626.63985,105.11394 626.63985,95.008376 617.18928,87.709916 608.58084,84.060686 599.78526,80.317886 592.4868,77.230076 592.4868,72.925856 592.4868,68.715206 595.66818,66.001676 601.65666,66.001676 609.61011,66.001676 617.28285,71.335166 617.28285,71.335166 L 624.39417,57.299666 C 624.39417,57.299666 614.47575,50.001206 600.44025,50.001206 Z"/>
	<path d="M 657.45347,51.404756 639.86231,51.404756 639.86231,128.60001 657.45347,128.60001 657.45347,51.404756 Z"/>
	<path d="M 670.27531,89.955596 C 670.27531,112.50597 686.36935,130.00356 709.20043,130.00356 731.37652,130.00356 748.03198,112.50597 748.03198,89.955596 748.03198,67.405226 730.62796,50.001206 709.20043,50.001206 687.96004,50.001206 670.27531,67.405226 670.27531,89.955596 Z M 689.27002,89.955596 C 689.27002,78.446486 695.63278,66.937376 709.20043,66.937376 722.86165,66.937376 729.03727,78.446486 729.03727,89.955596 729.03727,101.46471 723.23593,112.97382 709.20043,112.97382 694.79065,112.97382 689.27002,101.46471 689.27002,89.955596 Z"/>
	<path d="M 778.38508,80.692166 778.57222,80.692166 809.26318,128.60001 826.85434,128.60001 826.85434,51.404756 809.26318,51.404756 809.26318,99.312596 809.07604,99.312596 778.38508,51.404756 760.79392,51.404756 760.79392,128.60001 778.38508,128.60001 778.38508,80.692166 Z"/>
	<path d="M 869.71655,50.001206 C 857.27174,50.001206 844.54622,59.171066 844.54622,73.580846 844.54622,81.627866 849.97328,88.832756 859.23671,93.417686 868.40657,98.002616 876.64073,100.52901 876.64073,106.14321 876.64073,113.3481 869.34227,113.72238 865.5059,113.72238 856.89746,113.72238 846.60476,105.02037 846.60476,105.02037 L 837.80918,119.80443 C 837.80918,119.80443 848.75687,130.00356 866.81588,130.00356 881.88065,130.00356 895.91615,123.54723 895.91615,105.11394 895.91615,95.008376 886.46558,87.709916 877.85714,84.060686 869.06156,80.317886 861.7631,77.230076 861.7631,72.925856 861.7631,68.715206 864.94448,66.001676 870.93296,66.001676 878.88641,66.001676 886.55915,71.335166 886.55915,71.335166 L 893.67047,57.299666 C 893.67047,57.299666 883.75205,50.001206 869.71655,50.001206 Z"/>
	<path d="M 936.26206,89.955596 C 936.26206,112.50597 952.3561,130.00356 975.18718,130.00356 997.36327,130.00356 1014.0187,112.50597 1014.0187,89.955596 1014.0187,67.405226 996.61471,50.001206 975.18718,50.001206 953.94679,50.001206 936.26206,67.405226 936.26206,89.955596 Z M 955.25677,89.955596 C 955.25677,78.446486 961.61953,66.937376 975.18718,66.937376 988.8484,66.937376 995.02402,78.446486 995.02402,89.955596 995.02402,101.46471 989.22268,112.97382 975.18718,112.97382 960.7774,112.97382 955.25677,101.46471 955.25677,89.955596 Z"/>
	<path d="M 1071.4136,51.404756 1026.7807,51.404756 1026.7807,128.60001 1044.3718,128.60001 1044.3718,97.628336 1069.355,97.628336 1069.355,82.189286 1044.3718,82.189286 1044.3718,66.843806 1071.4136,66.843806 1071.4136,51.404756 Z"/>
	<path d="M 1154.5707,51.404756 1138.2895,51.404756 1107.1307,128.60001 1126.0318,128.60001 1131.7396,113.16096 1161.1206,113.16096 1166.8283,128.60001 1185.7295,128.60001 1154.5707,51.404756 Z M 1155.1321,97.721906 1137.7281,97.721906 1146.3365,75.265106 1146.5237,75.265106 1155.1321,97.721906 Z"/>
	<path d="M 1211.2404,80.692166 1211.4275,80.692166 1242.1185,128.60001 1259.7096,128.60001 1259.7096,51.404756 1242.1185,51.404756 1242.1185,99.312596 1241.9313,99.312596 1211.2404,51.404756 1193.6492,51.404756 1193.6492,128.60001 1211.2404,128.60001 1211.2404,80.692166 Z"/>
	<path d="M 139.98924,151.40476 95.824199,151.40476 95.824199,228.60001 139.98924,228.60001 139.98924,213.16096 113.41536,213.16096 113.41536,197.62834 138.8664,197.62834 138.8664,182.18929 113.41536,182.18929 113.41536,166.84381 139.98924,166.84381 139.98924,151.40476 Z"/>
	<path d="M 172.69327,180.69217 172.88041,180.69217 203.57137,228.60001 221.16253,228.60001 221.16253,151.40476 203.57137,151.40476 203.57137,199.3126 203.38423,199.3126 172.69327,151.40476 155.10211,151.40476 155.10211,228.60001 172.69327,228.60001 172.69327,180.69217 Z"/>
	<path d="M 307.21023,185.37067 271.56006,185.37067 271.56006,198.93832 289.33836,198.93832 C 289.33836,208.38889 281.01063,213.81595 272.58933,213.81595 261.73521,213.81595 252.93963,203.14897 252.93963,190.04917 252.93963,176.66866 261.73521,165.90811 272.58933,165.90811 279.41994,165.90811 285.31485,168.62164 289.80621,175.82653 L 301.31532,163.19458 C 294.57828,155.05399 285.12771,150.00121 271.56006,150.00121 249.85182,150.00121 233.94492,167.87308 233.94492,190.04917 233.94492,212.13169 250.78752,230.00356 271.56006,230.00356 286.7184,230.00356 302.99958,221.67583 307.21023,202.1197 L 307.21023,185.37067 Z"/>
	<path d="M 337.48582,151.40476 319.89466,151.40476 319.89466,228.60001 364.0597,228.60001 364.0597,213.16096 337.48582,213.16096 337.48582,151.40476 Z"/>
	<path d="M 395.30171,151.40476 377.71055,151.40476 377.71055,228.60001 395.30171,228.60001 395.30171,151.40476 Z"/>
	<path d="M 438.20341,150.00121 C 425.7586,150.00121 413.03308,159.17107 413.03308,173.58085 413.03308,181.62787 418.46014,188.83276 427.72357,193.41769 436.89343,198.00262 445.12759,200.52901 445.12759,206.14321 445.12759,213.3481 437.82913,213.72238 433.99276,213.72238 425.38432,213.72238 415.09162,205.02037 415.09162,205.02037 L 406.29604,219.80443 C 406.29604,219.80443 417.24373,230.00356 435.30274,230.00356 450.36751,230.00356 464.40301,223.54723 464.40301,205.11394 464.40301,195.00838 454.95244,187.70992 446.344,184.06069 437.54842,180.31789 430.24996,177.23008 430.24996,172.92586 430.24996,168.71521 433.43134,166.00168 439.41982,166.00168 447.37327,166.00168 455.04601,171.33517 455.04601,171.33517 L 462.15733,157.29967 C 462.15733,157.29967 452.23891,150.00121 438.20341,150.00121 Z"/>
	<path d="M 495.21663,197.62834 520.10625,197.62834 520.10625,228.60001 537.69741,228.60001 537.69741,151.40476 520.10625,151.40476 520.10625,182.18929 495.21663,182.18929 495.21663,151.40476 477.62547,151.40476 477.62547,228.60001 495.21663,228.60001 495.21663,197.62834 Z"/>
	<path d="M 581.02294,189.9556 C 581.02294,212.50597 597.11698,230.00356 619.94806,230.00356 642.12415,230.00356 658.77961,212.50597 658.77961,189.9556 658.77961,167.40523 641.37559,150.00121 619.94806,150.00121 598.70767,150.00121 581.02294,167.40523 581.02294,189.9556 Z M 600.01765,189.9556 C 600.01765,178.44649 606.38041,166.93738 619.94806,166.93738 633.60928,166.93738 639.7849,178.44649 639.7849,189.9556 639.7849,201.46471 633.98356,212.97382 619.94806,212.97382 605.53828,212.97382 600.01765,201.46471 600.01765,189.9556 Z"/>
	<path d="M 671.54155,151.40476 671.54155,228.60001 689.13271,228.60001 689.13271,199.96759 699.70612,199.96759 C 714.77089,199.96759 726.09286,191.07844 726.09286,175.17154 726.09286,159.17107 714.77089,151.40476 699.70612,151.40476 L 671.54155,151.40476 Z M 689.13271,185.93209 689.13271,165.44026 694.09192,165.44026 C 701.0161,165.44026 707.566,167.77951 707.566,175.73296 707.566,183.59284 701.0161,185.93209 694.09192,185.93209 L 689.13271,185.93209 Z"/>
	<path d="M 756.4518,151.40476 738.86064,151.40476 738.86064,228.60001 756.4518,228.60001 756.4518,151.40476 Z"/>
	<path d="M 832.05914,151.40476 814.46798,151.40476 814.46798,196.03765 C 814.46798,208.95031 810.53804,212.69311 801.9296,212.69311 793.32116,212.69311 789.39122,208.95031 789.39122,196.03765 L 789.39122,151.40476 771.80006,151.40476 771.80006,201.184 C 771.80006,220.27228 782.2799,230.00356 801.9296,230.00356 821.5793,230.00356 832.05914,220.27228 832.05914,201.184 L 832.05914,151.40476 Z"/>
	<path d="M 911.17971,228.60001 928.77087,228.60001 921.84669,151.40476 903.13269,151.40476 886.00938,195.94408 868.88607,151.40476 850.17207,151.40476 843.24789,228.60001 860.83905,228.60001 864.48828,182.84428 864.95613,182.84428 880.76946,228.13216 891.2493,228.13216 907.06263,182.84428 907.53048,182.84428 911.17971,228.60001 Z"/>
	<path d="M 940.81785,194.35339 940.81785,208.6696 970.94739,208.6696 970.94739,194.35339 940.81785,194.35339 Z"/>
	<path d="M 1031.2853,151.40476 987.12022,151.40476 987.12022,228.60001 1031.2853,228.60001 1031.2853,213.16096 1004.7114,213.16096 1004.7114,197.62834 1030.1624,197.62834 1030.1624,182.18929 1004.7114,182.18929 1004.7114,166.84381 1031.2853,166.84381 1031.2853,151.40476 Z"/>
	<path d="M 1086.1522,151.40476 1069.871,151.40476 1038.7122,228.60001 1057.6134,228.60001 1063.3211,213.16096 1092.7021,213.16096 1098.4099,228.60001 1117.311,228.60001 1086.1522,151.40476 Z M 1086.7136,197.72191 1069.3096,197.72191 1077.9181,175.26511 1078.1052,175.26511 1086.7136,197.72191 Z"/>
	<path d="M 1115.7962,166.84381 1134.1359,166.84381 1134.1359,228.60001 1151.7271,228.60001 1151.7271,166.84381 1170.0668,166.84381 1170.0668,151.40476 1115.7962,151.40476 1115.7962,166.84381 Z"/>
	<path d="M 1225.5669,151.40476 1181.4018,151.40476 1181.4018,228.60001 1225.5669,228.60001 1225.5669,213.16096 1198.993,213.16096 1198.993,197.62834 1224.444,197.62834 1224.444,182.18929 1198.993,182.18929 1198.993,166.84381 1225.5669,166.84381 1225.5669,151.40476 Z"/>
	<path d="M 1240.6798,151.40476 1240.6798,228.60001 1258.2709,228.60001 1258.2709,198.09619 1281.8506,228.60001 1304.2138,228.60001 1277.6399,196.69264 C 1287.0905,193.6984 1293.4533,185.93209 1293.4533,174.32941 1293.4533,159.17107 1282.5991,151.40476 1268.2829,151.40476 L 1240.6798,151.40476 Z M 1258.2709,185.65138 1258.2709,165.44026 1260.3295,165.44026 C 1266.973,165.44026 1274.9264,165.90811 1274.9264,175.54582 1274.9264,185.18353 1266.973,185.65138 1260.3295,185.65138 L 1258.2709,185.65138 Z"/>
	<path d="M 263.95145,342.63121 277.70673,342.63121 277.70673,388.95001 290.90057,388.95001 290.90057,342.63121 304.65585,342.63121 304.65585,331.05151 263.95145,331.05151 263.95145,342.63121 Z"/>
	<path d="M 327.6011,365.72043 346.26898,365.72043 346.26898,388.95001 359.46282,388.95001 359.46282,331.05151 346.26898,331.05151 346.26898,354.14073 327.6011,354.14073 327.6011,331.05151 314.40726,331.05151 314.40726,388.95001 327.6011,388.95001 327.6011,365.72043 Z"/>
	<path d="M 370.26802,359.96567 C 370.26802,376.87905 382.33898,390.00271 399.46291,390.00271 416.09557,390.00271 428.58761,376.87905 428.58761,359.96567 428.58761,343.05229 415.53413,329.99881 399.46291,329.99881 383.53204,329.99881 370.26802,343.05229 370.26802,359.96567 Z M 384.51456,359.96567 C 384.51456,351.33353 389.2868,342.70139 399.46291,342.70139 409.70919,342.70139 414.34107,351.33353 414.34107,359.96567 414.34107,368.59781 409.98991,377.22995 399.46291,377.22995 388.65518,377.22995 384.51456,368.59781 384.51456,359.96567 Z"/>
	<path d="M 487.27202,388.95001 500.46586,388.95001 495.27254,331.05151 481.23654,331.05151 468.3936,364.45719 455.55066,331.05151 441.51466,331.05151 436.32134,388.95001 449.51518,388.95001 452.2522,354.63199 452.6031,354.63199 464.46352,388.59911 472.32368,388.59911 484.1841,354.63199 484.535,354.63199 487.27202,388.95001 Z"/>
	<path d="M 540.1567,331.05151 527.94538,331.05151 504.57544,388.95001 518.7518,388.95001 523.03278,377.37031 545.0693,377.37031 549.35028,388.95001 563.52664,388.95001 540.1567,331.05151 Z M 540.57778,365.79061 527.5243,365.79061 533.98086,348.94741 534.12122,348.94741 540.57778,365.79061 Z"/>
	<path d="M 590.6805,329.99881 C 581.34656,329.99881 571.80208,336.87645 571.80208,347.68417 571.80208,353.71965 575.87252,359.12351 582.82034,362.56233 589.69798,366.00115 595.87382,367.89601 595.87382,372.10681 595.87382,377.51067 590.39978,377.79139 587.5224,377.79139 581.06584,377.79139 573.34604,371.26465 573.34604,371.26465 L 566.74912,382.35309 C 566.74912,382.35309 574.96018,390.00271 588.50492,390.00271 599.8039,390.00271 610.3309,385.16029 610.3309,371.33483 610.3309,363.75539 603.24272,358.28135 596.78616,355.54433 590.18924,352.73713 584.7152,350.42119 584.7152,347.19291 584.7152,344.03481 587.10132,341.99959 591.59284,341.99959 597.55814,341.99959 603.3129,345.99985 603.3129,345.99985 L 608.64658,335.47285 C 608.64658,335.47285 601.2075,329.99881 590.6805,329.99881 Z"/>
	<path d="M 645.68782,331.05151 645.68782,388.95001 662.46084,388.95001 C 678.3917,388.95001 691.65572,376.87905 691.65572,359.96567 691.65572,343.12247 678.32152,331.05151 662.46084,331.05151 L 645.68782,331.05151 Z M 658.88166,377.15977 658.88166,342.84175 660.91688,342.84175 C 670.74208,342.84175 677.40918,350.35101 677.40918,360.03585 677.339,369.72069 670.6719,377.15977 660.91688,377.15977 L 658.88166,377.15977 Z"/>
	<path d="M 735.62534,331.05151 702.50038,331.05151 702.50038,388.95001 735.62534,388.95001 735.62534,377.37031 715.69422,377.37031 715.69422,365.72043 734.78318,365.72043 734.78318,354.14073 715.69422,354.14073 715.69422,342.63121 735.62534,342.63121 735.62534,331.05151 Z"/>
	<path d="M 786.50631,401.09115 C 786.50631,401.09115 789.59423,397.86287 795.06827,397.86287 803.98113,397.86287 807.56031,403.33691 816.19245,403.33691 825.38603,403.33691 829.10557,395.47675 829.10557,395.47675 L 824.96495,386.56389 C 824.96495,386.56389 822.22793,390.35361 816.26263,390.35361 812.82381,390.35361 808.61301,389.02019 807.27959,389.02019 L 807.27959,388.73947 C 819.28037,385.09011 827.42125,373.79113 827.42125,359.96567 827.42125,343.05229 814.71867,329.99881 798.64745,329.99881 782.71659,329.99881 769.80347,343.05229 769.80347,359.96567 769.80347,374.84383 778.85669,386.77443 792.61197,389.44127 L 792.61197,389.72199 C 788.40117,389.72199 783.34821,396.31891 783.34821,396.31891 L 786.50631,401.09115 Z M 784.05001,359.96567 C 784.05001,351.33353 788.47135,343.26283 798.64745,343.26283 808.89373,343.26283 813.17471,351.33353 813.17471,359.96567 813.17471,368.59781 809.17445,376.66851 798.64745,376.66851 787.83973,376.66851 784.05001,368.59781 784.05001,359.96567 Z"/>
	<path d="M 882.75344,331.05151 869.5596,331.05151 869.5596,364.52737 C 869.5596,374.21221 866.61204,377.01941 860.15548,377.01941 853.69892,377.01941 850.75136,374.21221 850.75136,364.52737 L 850.75136,331.05151 837.55752,331.05151 837.55752,368.38727 C 837.55752,382.70399 845.41768,390.00271 860.15548,390.00271 874.89328,390.00271 882.75344,382.70399 882.75344,368.38727 L 882.75344,331.05151 Z"/>
	<path d="M 908.67698,331.05151 895.48314,331.05151 895.48314,388.95001 908.67698,388.95001 908.67698,331.05151 Z"/>
	<path d="M 935.33408,353.01785 935.47444,353.01785 958.49348,388.95001 971.68732,388.95001 971.68732,331.05151 958.49348,331.05151 958.49348,366.98367 958.35312,366.98367 935.33408,331.05151 922.14024,331.05151 922.14024,388.95001 935.33408,388.95001 935.33408,353.01785 Z"/>
	<path d="M 1013.7369,377.01941 C 1000.4728,377.01941 994.6479,367.75565 994.6479,359.96567 994.6479,352.24587 1000.4728,342.98211 1013.7369,342.98211 1020.4741,342.98211 1025.106,346.56129 1025.106,346.56129 L 1030.7204,335.33249 C 1030.7204,335.33249 1024.2639,329.99881 1011.7016,329.99881 995.27952,329.99881 980.33118,343.47337 980.33118,360.10603 980.33118,376.66851 995.3497,390.00271 1011.7016,390.00271 1024.2639,390.00271 1030.7204,384.66903 1030.7204,384.66903 L 1025.106,373.44023 C 1025.106,373.44023 1020.4741,377.01941 1013.7369,377.01941 Z"/>
	<path d="M 1073.962,331.05151 1040.837,331.05151 1040.837,388.95001 1073.962,388.95001 1073.962,377.37031 1054.0309,377.37031 1054.0309,365.72043 1073.1198,365.72043 1073.1198,354.14073 1054.0309,354.14073 1054.0309,342.63121 1073.962,342.63121 1073.962,331.05151 Z"/>
	<path d="M 1080.2307,331.05151 1101.5654,362.98341 1101.5654,388.95001 1114.7592,388.95001 1114.7592,362.98341 1136.0939,331.05151 1120.2333,331.05151 1108.1623,349.57903 1096.0913,331.05151 1080.2307,331.05151 Z"/>
</svg>
